# xmcd
#
# Track frame offsets: 
#        150
#        23692
#        39450
#
# Disc length: 813 seconds
#
# Revision: 3
# Processed by: cddbd v1.5.2PL0 Copyright (c) Steve Scherf et al.
# Submitted via: ExactAudioCopy v0.99pb4
#
DISCID=18032b03
DTITLE=Super Furry Animals - Demons
DYEAR=1997
DGENRE=Rock
TTITLE0=Demons
TTITLE1=Hit And Run
TTITLE2=Carry The Can
EXTD=YEAR: 1997
EXTT0=
EXTT1=
EXTT2=
PLAYORDER=
